<svg width="93" height="88" viewBox="0 0 93 88" fill="none" xmlns="http://www.w3.org/2000/svg">
<path fill-rule="evenodd" clip-rule="evenodd" d="M83.8095 8.38095H71.2381V0H62.8571V25.1429H71.2381V16.7619H83.8095V79.6191H8.38095V16.7619H16.7619V8.38095H8.38095C3.75467 8.38095 0 12.1356 0 16.7619V79.6191C0 84.2453 3.75467 88 8.38095 88H83.8095C88.4358 88 92.1905 84.2453 92.1905 79.6191V16.7619C92.1905 12.1356 88.4358 8.38095 83.8095 8.38095" fill="#357EDD"/>
<path fill-rule="evenodd" clip-rule="evenodd" d="M29.3333 16.7619H58.6667V8.38095H29.3333V0H20.9524V25.1429H29.3333V16.7619Z" fill="#357EDD"/>
<path fill-rule="evenodd" clip-rule="evenodd" d="M33.5239 33.5218H16.762V50.2837H33.5239V33.5218Z" fill="#357EDD"/>
<path fill-rule="evenodd" clip-rule="evenodd" d="M54.4761 33.5218H37.7142V50.2837H54.4761V33.5218Z" fill="#357EDD"/>
<path fill-rule="evenodd" clip-rule="evenodd" d="M58.6666 50.2837H75.4285V33.5218H58.6666V50.2837Z" fill="#357EDD"/>
<path fill-rule="evenodd" clip-rule="evenodd" d="M16.762 71.236H33.5239V54.4741H16.762V71.236Z" fill="#357EDD"/>
<path fill-rule="evenodd" clip-rule="evenodd" d="M37.7142 71.236H54.4761V54.4741H37.7142V71.236Z" fill="#357EDD"/>
</svg>
