<svg width="24" height="24" viewBox="0 0 24 24" fill="none" xmlns="http://www.w3.org/2000/svg">
<path d="M21 7.00098H19V11H21V7.00098Z" fill="#357EDD"/>
<path d="M7.001 16H9.001V17.133L4.001 17.848V15.001H2V22.001H4V19.867L10.142 18.99C10.635 18.92 11 18.498 11 18V16H13V14.001H7V16H7.001Z" fill="#357EDD"/>
<path d="M16 9.00002C16 10.104 15.104 11.001 14 11.001H3V12C3 12.552 3.447 13 4 13H17C17.553 13 18 12.552 18 12V6.77502L16 7.44102V9.00002Z" fill="#357EDD"/>
<path d="M20 2.00098H6C3.795 2.00098 2 3.79498 2 5.99998V8.99998C2 9.55198 2.447 9.99998 3 9.99998H14C14.553 9.99998 15 9.55198 15 8.99998V6.72098L20.316 4.94998C20.725 4.81198 21 4.43098 21 3.99998V2.99998C21 2.44798 20.553 2.00098 20 2.00098Z" fill="#357EDD"/>
</svg>
