<svg width="24" height="24" viewBox="0 0 24 24" fill="none" xmlns="http://www.w3.org/2000/svg">
<path d="M19.001 9C19.236 9 19.467 9.013 19.696 9.035C19.893 8.391 20 7.708 20 7C20 3.141 16.859 0 13 0C10.49 0 8.26 1.31 7.022 3.357C7.987 3.815 9.018 4.62 9.992 6.004L9.175 6.58C7.678 4.454 6.393 4 5 4C2.243 4 0 6.243 0 9C0 11.757 2.243 14 5 14H12.295C13.156 11.109 15.83 9 19.001 9Z" fill="#357EDD"/>
<path d="M23 15C23 12.794 21.206 11 19 11C16.794 11 15 12.794 15 15C14.447 15 14 15.447 14 16V23C14 23.553 14.447 24 15 24H23C23.553 24 24 23.553 24 23V16C24 15.447 23.553 15 23 15ZM19 13C20.103 13 21 13.898 21 15H17C17 13.898 17.897 13 19 13ZM22 22H16V17H22V22Z" fill="#357EDD"/>
<path d="M19 20C19.5523 20 20 19.5523 20 19C20 18.4477 19.5523 18 19 18C18.4477 18 18 18.4477 18 19C18 19.5523 18.4477 20 19 20Z" fill="#357EDD"/>
</svg>
