<svg width="24" height="24" viewBox="0 0 24 24" fill="none" xmlns="http://www.w3.org/2000/svg">
<path d="M21.7069 13.293L12.7069 4.29301C12.3159 3.90201 11.6839 3.90201 11.2929 4.29301L2.29295 13.293C2.00695 13.579 1.92095 14.009 2.07595 14.383C2.23095 14.756 2.59595 15 2.99995 15H4.99995V23H18.9999V15H20.9999C21.4039 15 21.7689 14.756 21.9239 14.383C22.0789 14.009 21.9929 13.579 21.7069 13.293ZM15.1119 18.091C14.4559 19.231 13.2299 19.94 11.9119 19.94C11.5149 19.94 11.1239 19.867 10.7499 19.743L9.77994 21.459L8.47294 20.721L9.44994 18.992C8.92295 18.519 8.53995 17.908 8.35195 17.209C8.09595 16.257 8.22495 15.263 8.71695 14.408C9.64095 12.803 13.8739 10.787 15.4669 10.03C15.5889 11.029 16.2769 16.068 15.1119 18.091Z" fill="#357EDD"/>
<path d="M10.0169 15.155C9.72494 15.662 9.64794 16.253 9.79994 16.818C9.88194 17.12 10.0269 17.393 10.2189 17.629L11.3459 15.631L12.6529 16.369L11.5159 18.383C12.3989 18.53 13.3569 18.133 13.8119 17.342C14.3239 16.453 14.3379 14.111 14.2059 12.311C12.4629 13.215 10.4169 14.461 10.0169 15.155Z" fill="#357EDD"/>
</svg>
