<svg width="24" height="24" viewBox="0 0 24 24" fill="none" xmlns="http://www.w3.org/2000/svg">
<path d="M13 13C13 12.449 12.551 12 12 12C11.449 12 11 12.449 11 13V14H13V13Z" fill="#357EDD"/>
<path d="M12 18C12.5523 18 13 17.5523 13 17C13 16.4477 12.5523 16 12 16C11.4477 16 11 16.4477 11 17C11 17.5523 11.4477 18 12 18Z" fill="#357EDD"/>
<path d="M21.7069 12.293L12.7069 3.29301C12.3159 2.90201 11.6839 2.90201 11.2929 3.29301L2.29295 12.293C2.00695 12.579 1.92095 13.009 2.07595 13.383C2.22995 13.757 2.59595 14 2.99995 14H3.99995V23H19.9999V14H20.9999C21.4039 14 21.7699 13.757 21.9239 13.383C22.0789 13.009 21.9919 12.579 21.7069 12.293ZM15.9999 20H7.99995V14H8.99995V13C8.99995 11.346 10.3459 10 11.9999 10C13.6539 10 14.9999 11.346 14.9999 13V14H15.9999V20Z" fill="#357EDD"/>
</svg>
