<svg width="167" height="23" viewBox="0 0 167 23" fill="none" xmlns="http://www.w3.org/2000/svg">
<path d="M1 1H5.17207V12.1896C5.11381 13.3373 5.14714 14.4879 5.27175 15.6303C5.42285 16.4432 5.87539 17.1692 6.53903 17.6635C7.34999 18.2163 8.32107 18.4862 9.30143 18.4313C10.2497 18.4936 11.1917 18.2385 11.9784 17.7062C12.5509 17.2715 12.9376 16.6365 13.0606 15.9289C13.2276 14.7515 13.3085 13.5635 13.3026 12.3744V1H17.4747V11.8483C17.5285 13.604 17.4141 15.3608 17.133 17.0948C16.9441 18.0502 16.5126 18.9413 15.8799 19.6825C15.2235 20.4353 14.3924 21.0162 13.4593 21.3744C12.2041 21.8236 10.8763 22.0357 9.54349 22C8.01309 22.0739 6.4833 21.8419 5.04392 21.3175C4.08597 20.9147 3.24053 20.2852 2.58055 19.4834C2.01814 18.8216 1.61832 18.0377 1.41294 17.1943C1.09667 15.4881 0.958285 13.7537 1 12.019V1Z" fill="#596063"/>
<path d="M19.4112 0.999999H27.6699C28.893 0.977587 30.116 1.04411 31.3294 1.19905C32.0978 1.33075 32.8301 1.62132 33.4795 2.05213C34.1355 2.52194 34.676 3.13454 35.0601 3.8436C35.492 4.57518 35.7137 5.41149 35.7008 6.26066C35.7095 7.20484 35.4369 8.13028 34.9177 8.91943C34.4083 9.71861 33.6757 10.3513 32.8103 10.7393C33.9381 11.0323 34.9385 11.6866 35.6581 12.6019C36.3341 13.4978 36.69 14.5941 36.6691 15.7156C36.6674 16.6687 36.4432 17.6083 36.0141 18.4597C35.6049 19.3059 34.9877 20.0348 34.2199 20.5782C33.3761 21.1545 32.3924 21.4934 31.3721 21.5592C30.6744 21.6445 28.9942 21.6872 26.3457 21.7014H19.4112V0.999999ZM23.5833 4.44076V9.21801H26.3172C27.9405 9.21801 28.9515 9.21801 29.3502 9.21801C29.9766 9.16355 30.5674 8.90359 31.0304 8.47867C31.2375 8.26429 31.3986 8.00998 31.5039 7.73128C31.6092 7.45258 31.6564 7.15537 31.6427 6.85782C31.6737 6.27977 31.4856 5.71124 31.1158 5.2654C30.6875 4.81303 30.101 4.5431 29.4783 4.51185C29.0654 4.51185 27.8835 4.44076 25.9185 4.44076H23.5833ZM23.5833 12.6445V18.1469H27.4421C28.3929 18.1775 29.3446 18.1395 30.2899 18.0332C30.8713 17.9347 31.4028 17.6443 31.7993 17.2085C32.2097 16.721 32.4185 16.0956 32.3831 15.4597C32.4041 14.9006 32.2498 14.3489 31.9417 13.8815C31.6133 13.4404 31.1554 13.1124 30.6317 12.9431C29.4162 12.6808 28.1713 12.5804 26.9295 12.6445H23.5833Z" fill="#596063"/>
<path d="M38.3066 21.6446V1H47.0921C48.7158 0.92511 50.341 1.11235 51.905 1.5545C52.9008 1.92847 53.7428 2.6241 54.2971 3.53081C54.9072 4.50646 55.2235 5.63664 55.2084 6.78673C55.2445 8.20135 54.7347 9.57569 53.7845 10.6256C53.3333 11.1681 52.7788 11.6158 52.1531 11.9428C51.5274 12.2699 50.8429 12.4697 50.1393 12.5308C50.7231 13.2417 56.8175 21.6446 56.8175 21.6446H51.9904L45.7964 13.0284H42.4786V21.6446H38.3066ZM42.4786 9.72986H45.5685C46.8203 9.81228 48.0775 9.74545 49.3134 9.53081C49.7881 9.37885 50.1988 9.07378 50.4811 8.66351C50.7802 8.2033 50.9294 7.66197 50.9082 7.11375C50.9376 6.50513 50.7397 5.90728 50.3529 5.43602C49.9397 4.98635 49.3791 4.69892 48.7724 4.62559C48.4449 4.62559 47.4196 4.62559 45.7394 4.62559H42.4786V9.72986Z" fill="#596063"/>
<path d="M93.0988 21.6445H88.5565L86.7482 16.9526H78.4895L76.7808 21.6445H72.3524L80.4117 1H84.8259L93.0988 21.6445ZM85.4097 13.4692L82.5619 5.81991L79.714 13.4692H85.4097Z" fill="#596063"/>
<path d="M117.604 1H113.432V21.6445H117.604V1Z" fill="#ED3A23"/>
<path d="M119.626 21.6445V1H133.809V4.49763H123.798V9.37441H132.442V12.872H123.798V21.6445H119.626Z" fill="#ED3A23"/>
<path d="M139.789 1H135.617V21.6445H139.789V1Z" fill="#ED3A23"/>
<path d="M160.635 1H155.637L151.038 7.99526L146.467 1H141.441L148.29 11.3507L141.441 21.6445H146.453L151.038 14.6635L155.609 21.6445H160.635L153.786 11.2938L160.635 1Z" fill="#ED3A23"/>
<path d="M103.807 9.03317L111.581 1H106.384L97.5557 10.1706V1H93.3836V21.6445H97.5557V15.4028L100.93 11.9479L107.139 21.6445H112.008L103.807 9.03317Z" fill="#596063"/>
<path d="M71.7971 18.1469H61.3598V12.5592H70.487V9.07583H61.3598V4.49763H72.4805V1H57.1877V21.6445H70.4301L71.7971 18.1469Z" fill="#596063"/>
<path d="M163.939 21.019V18.7867H164.878C165.053 18.7581 165.231 18.7581 165.405 18.7867C165.513 18.8252 165.604 18.9008 165.662 19C165.739 19.1132 165.78 19.247 165.78 19.3839C165.78 19.5208 165.739 19.6546 165.662 19.7678C165.614 19.8288 165.554 19.8784 165.485 19.9128C165.416 19.9473 165.34 19.9658 165.263 19.9668L165.989 20.9621H165.462L164.793 20.0237H164.423V20.9621L163.939 21.019ZM164.38 19.7251H164.75C164.883 19.7397 165.016 19.7397 165.149 19.7251C165.201 19.7136 165.246 19.6832 165.277 19.6398C165.289 19.5836 165.289 19.5254 165.277 19.4692C165.302 19.41 165.302 19.3435 165.277 19.2844C165.23 19.2396 165.17 19.2099 165.106 19.1991H164.423L164.38 19.7251Z" fill="#53565B"/>
<path d="M164.893 17.7773C165.256 17.7844 165.612 17.8769 165.932 18.0474C166.26 18.232 166.53 18.5024 166.715 18.8294C166.899 19.1552 166.997 19.522 167 19.8957C166.996 20.2604 166.898 20.6179 166.715 20.9337C166.538 21.2664 166.265 21.5387 165.932 21.7156C165.615 21.9019 165.253 22.0001 164.885 22.0001C164.517 22.0001 164.156 21.9019 163.839 21.7156C163.506 21.5387 163.233 21.2664 163.056 20.9337C162.873 20.6179 162.775 20.2604 162.771 19.8957C162.774 19.522 162.872 19.1552 163.056 18.8294C163.241 18.5024 163.511 18.232 163.839 18.0474C164.164 17.8753 164.525 17.7827 164.893 17.7773V17.7773ZM164.893 18.1896C164.597 18.1876 164.307 18.2663 164.052 18.4171C163.782 18.5538 163.563 18.7729 163.426 19.0427C163.277 19.2999 163.199 19.5916 163.199 19.8886C163.199 20.1856 163.277 20.4774 163.426 20.7346C163.563 21.0044 163.782 21.2235 164.052 21.3602C164.306 21.513 164.597 21.5919 164.893 21.5877C165.188 21.5896 165.479 21.511 165.733 21.3602C166.003 21.2235 166.222 21.0044 166.359 20.7346C166.508 20.4774 166.586 20.1856 166.586 19.8886C166.586 19.5916 166.508 19.2999 166.359 19.0427C166.215 18.7783 165.998 18.561 165.733 18.4171C165.478 18.2676 165.188 18.189 164.893 18.1896Z" fill="#53565B"/>
</svg>
