<svg width="32" height="32" viewBox="0 0 32 32" fill="none" xmlns="http://www.w3.org/2000/svg">
<g clip-path="url(#clip0)">
<path d="M15.476 23.9973C13.2706 23.9973 11.476 25.7906 11.476 27.9973C11.476 30.2026 13.2706 31.9973 15.476 31.9973C17.6813 31.9973 19.476 30.2026 19.476 27.9973C19.476 25.7906 17.6826 23.9973 15.476 23.9973ZM15.476 29.3306C14.7413 29.3306 14.1426 28.732 14.1426 27.9973C14.1426 27.2613 14.7413 26.664 15.476 26.664C16.2106 26.664 16.8093 27.2613 16.8093 27.9973C16.8093 28.732 16.2106 29.3306 15.476 29.3306Z" fill="#357EDD"/>
<path d="M7.93469 20.4547L9.82002 22.34C11.3307 20.828 13.3387 19.9974 15.476 19.9974C17.612 19.9974 19.6214 20.8294 21.132 22.34L23.0174 20.4547C21.0027 18.44 18.324 17.3307 15.476 17.3307C12.628 17.3307 9.94803 18.44 7.93469 20.4547Z" fill="#357EDD"/>
<path d="M12 6.96667C7.62529 7.68001 3.58663 9.71467 0.390625 12.912L2.27596 14.7973C4.96796 12.1053 8.33862 10.3453 12 9.65867V6.96667Z" fill="#357EDD"/>
<path d="M25.3334 13.3093H20V7.97601L17.3334 10.6427V14.6427C17.3334 15.3773 17.9294 15.976 18.6667 15.976H26.6667C27.404 15.976 28 15.3773 28 14.6427V10.6427L25.3334 7.97601V13.3093Z" fill="#357EDD"/>
<path d="M23.6093 0.365342C23.088 -0.154658 22.2453 -0.154658 21.724 0.365342L13.724 8.36534L15.6093 10.2507L22.6667 3.19334L29.724 10.2507L31.6093 8.36534L23.6093 0.365342Z" fill="#357EDD"/>
<path d="M12.0001 12.3987C9.12805 13.0347 6.39339 14.4507 4.16272 16.6827L6.04805 18.5667C7.75605 16.86 9.81872 15.724 12.0001 15.1387V12.3987Z" fill="#357EDD"/>
</g>
<defs>
<clipPath id="clip0">
<rect width="32" height="32" fill="white"/>
</clipPath>
</defs>
</svg>
