<svg width="32" height="32" viewBox="0 0 32 32" fill="none" xmlns="http://www.w3.org/2000/svg">
<path d="M29.3333 10.668H26.6666C26.6666 7.7267 24.2733 5.3347 21.3333 5.3347C18.3933 5.3347 15.9999 7.7267 15.9999 10.668H13.3333C13.3333 6.25603 16.9213 2.66803 21.3333 2.66803C25.7453 2.66803 29.3333 6.25603 29.3333 10.668Z" fill="#357EDD"/>
<path d="M26.6667 17.3347H22.6667V12.9653C23.4614 12.5013 24.0001 11.6533 24.0001 10.668C24.0001 9.19601 22.8054 8.00134 21.3334 8.00134C19.8587 8.00134 18.6667 9.19734 18.6667 10.668C18.6667 11.652 19.2054 12.5027 20.0001 12.9653V17.3347H5.33341C3.86275 17.3347 2.66675 18.5293 2.66675 20.0013V25.3347C2.66675 26.804 3.86275 28.0013 5.33341 28.0013V29.3347H8.00008V28.0013H24.0001V29.3347H26.6667V28.0013C28.1387 28.0013 29.3334 26.804 29.3334 25.3347V20.0013C29.3334 18.5307 28.1387 17.3347 26.6667 17.3347ZM16.0001 24.0013H5.33341V21.3347H16.0001V24.0013ZM20.0001 24.0013C19.2627 24.0013 18.6667 23.4053 18.6667 22.668C18.6667 21.9307 19.2627 21.3347 20.0001 21.3347C20.7374 21.3347 21.3334 21.9307 21.3334 22.668C21.3334 23.4053 20.7374 24.0013 20.0001 24.0013ZM25.3334 24.0013C24.5961 24.0013 24.0001 23.4053 24.0001 22.668C24.0001 21.9307 24.5961 21.3347 25.3334 21.3347C26.0707 21.3347 26.6667 21.9307 26.6667 22.668C26.6667 23.4053 26.0707 24.0013 25.3334 24.0013Z" fill="#357EDD"/>
</svg>
